<svg xmlns="http://www.w3.org/2000/svg" width="62.829" height="62.829" viewBox="0 0 62.829 62.829">
  <path id="globe-solid" d="M43.195,31.415a76.732,76.732,0,0,1-.4,7.854H20.039a73.39,73.39,0,0,1-.4-7.854,76.732,76.732,0,0,1,.4-7.854H42.79A73.389,73.389,0,0,1,43.195,31.415Zm3.534-7.854H61.835a31.524,31.524,0,0,1,0,15.707H46.729a77.531,77.531,0,0,0,.393-7.854A77.531,77.531,0,0,0,46.729,23.561Zm13.817-3.927H46.226C45,11.793,42.569,5.228,39.44,1.031a31.476,31.476,0,0,1,21.094,18.6Zm-18.3,0H20.579A49.458,49.458,0,0,1,23.892,8.013,20.045,20.045,0,0,1,28,1.693,5.07,5.07,0,0,1,31.415,0a5.07,5.07,0,0,1,3.411,1.693,20.045,20.045,0,0,1,4.111,6.32A47.983,47.983,0,0,1,42.25,19.634Zm-25.647,0H2.282a31.5,31.5,0,0,1,21.107-18.6c-3.129,4.2-5.559,10.762-6.786,18.6ZM.994,23.561H16.1a78.733,78.733,0,0,0,0,15.707H.994a31.524,31.524,0,0,1,0-15.707ZM23.892,54.8a48.6,48.6,0,0,1-3.313-11.609H42.25A49.176,49.176,0,0,1,38.937,54.8a20.045,20.045,0,0,1-4.111,6.32,5.042,5.042,0,0,1-3.411,1.706A5.07,5.07,0,0,1,28,61.136a20.045,20.045,0,0,1-4.111-6.32ZM16.6,43.195C17.83,51.036,20.26,57.6,23.389,61.8a31.5,31.5,0,0,1-21.107-18.6Zm43.944,0A31.5,31.5,0,0,1,39.452,61.8c3.129-4.2,5.547-10.762,6.786-18.6H60.547Z" transform="translate(0 0)" fill="#dc770c"/>
</svg>
