<svg xmlns="http://www.w3.org/2000/svg" width="19.745" height="21.908" viewBox="0 0 19.745 21.908">
  <path id="thumbtack-solid" d="M1.04,1.119A1.118,1.118,0,0,1,2.159,0h8.954a1.119,1.119,0,1,1,0,2.238H10.081l.4,5.183a5.877,5.877,0,0,1,2.781,3.312l.035.1a1.112,1.112,0,0,1-.154,1.007,1.125,1.125,0,0,1-.909.465H1.04a1.12,1.12,0,0,1-.909-.465,1.105,1.105,0,0,1-.154-1.007l.035-.1A5.877,5.877,0,0,1,2.792,7.422l.4-5.183H2.159A1.118,1.118,0,0,1,1.04,1.119ZM5.517,13.431H7.755v3.358a1.119,1.119,0,0,1-2.238,0Z" transform="translate(7.643 0.035) rotate(25)" fill="#dc770c"/>
</svg>
