<svg xmlns="http://www.w3.org/2000/svg" width="50.954" height="57.661" viewBox="0 0 50.954 57.661">
  <g id="Group_42828" data-name="Group 42828" transform="translate(-1.738 -14.593)">
    <g id="Group_42821" data-name="Group 42821" transform="translate(1.738 14.593)">
      <path id="Path_44726" data-name="Path 44726" d="M1030.025,531.931c0,5.266-.049,10.532.021,15.8.021,1.971-.528,2.872-2.738,3.013-9.616.612-9.609.69-9.609-8.94,0-8.152.07-16.3-.049-24.449-.042-2.773.612-4.034,3.745-3.992,8.638.113,8.638-.021,8.638,8.793Q1030.032,527.042,1030.025,531.931Zm-9.609-15.776v31.862h6.99V516.154Z" transform="translate(-979.437 -493.31)" fill="#dc770c"/>
      <path id="Path_44727" data-name="Path 44727" d="M990.678,538.9c0-3.893.049-7.779-.021-11.672-.035-2,.627-2.865,2.788-3.013,9.63-.633,9.623-.7,9.623,8.962,0,5.773-.07,11.545.042,17.318.042,2.351-.641,3.449-3.189,3.386-11.123-.275-9.018,1.612-9.25-8.955-.042-2.006-.007-4.013-.007-6.026Zm2.781-12.066v24.2c7.2,1.021,7.2,1.021,7.188-5.8-.007-1.887,0-3.766,0-5.653V526.831C997.936,526.838,995.838,526.838,993.459,526.838Z" transform="translate(-971.445 -496.454)" fill="#dc770c"/>
      <path id="Path_44728" data-name="Path 44728" d="M1009.509,488.456c-2.661-.155-4.273-.246-5.885-.338-.042-.437-.078-.866-.12-1.3,3.034-1.788,6.653-.922,10.82-1.936-.464,4.1-.852,7.575-1.239,11.038l-1.626-.042c-.176-1.661-.352-3.316-.577-5.428-13.735,12.46-28.54,22.457-46.751,25.977-.253-.563-.507-1.133-.76-1.7,4.013-1.338,8.11-2.464,12.017-4.062A107.155,107.155,0,0,0,987.58,504.8a103.829,103.829,0,0,0,10.982-7.251C1002.124,494.891,1005.426,491.878,1009.509,488.456Z" transform="translate(-963.37 -484.88)" fill="#dc770c"/>
      <path id="Path_44729" data-name="Path 44729" d="M963.592,544.529v-3.006c0-8.842,1.619-10.2,10.412-8.37a3.312,3.312,0,0,1,1.95,2.478c.176,6.012.1,12.031.1,18.05,0,.373.106.887-.1,1.105-2.95,3.231-6.758,1.014-10.151,1.387-.619.07-1.992-1.88-2.112-3A82.317,82.317,0,0,1,963.592,544.529Zm2.788-8.863v17.987h6.955V535.666Z" transform="translate(-963.416 -498.96)" fill="#dc770c"/>
    </g>
  </g>
</svg>
