<svg xmlns="http://www.w3.org/2000/svg" width="33" height="47" viewBox="0 0 33 47">
  <path id="lightbulb-solid" d="M40,35.25c.9-2.928,2.766-5.425,4.613-7.913h0c.488-.652.975-1.3,1.444-1.964A15.838,15.838,0,0,0,49,16.165,16.333,16.333,0,0,0,32.5,0,16.331,16.331,0,0,0,16,16.156a15.817,15.817,0,0,0,2.944,9.207c.469.661.956,1.313,1.444,1.964h0c1.856,2.488,3.722,4.994,4.612,7.913H40ZM32.5,47A7.421,7.421,0,0,0,40,39.656V38.188H25v1.469A7.421,7.421,0,0,0,32.5,47ZM25,16.156a1.5,1.5,0,0,1-3,0A10.387,10.387,0,0,1,32.5,5.875a1.469,1.469,0,1,1,0,2.938A7.421,7.421,0,0,0,25,16.156Z" transform="translate(-16)" fill="#dc770c"/>
</svg>
