<svg xmlns="http://www.w3.org/2000/svg" width="112.069" height="47.89" viewBox="0 0 112.069 47.89">
  <g id="Masrseo_Logo_svg-05" data-name="Masrseo Logo svg-05" transform="translate(0.019)">
    <path id="Path_1" data-name="Path 1" d="M48.33,0h5.815V26.463h4.4v4.579H48.33Z" transform="translate(-13.208)" fill="#dc760f"/>
    <path id="Path_2" data-name="Path 2" d="M90.118,34.274a17.487,17.487,0,0,1-5.328-.6,5.015,5.015,0,0,1-2.82-2.428q-1.57,3.372-6.643,3.372-4.71,0-5.815-3.416-1.352,3.074-5.873,3.074H61.46V29.7h2.18a3.639,3.639,0,0,0,3.053-1.119,7.56,7.56,0,0,0,.974-4.339V16.242h5.815V24.36a11.9,11.9,0,0,0,.538,4.361,2.464,2.464,0,0,0,2.493,1.352q3.525,0,3.525-5.633V14.454h5.589V25.5c0,1.723.356,2.849,1.076,3.394s2.064.8,4.128.8h1.134a40.388,40.388,0,0,0,.327-5.291,53.217,53.217,0,0,0-1.366-11.8l5.676-.77a52.077,52.077,0,0,1,1.454,12.189c0,1.635-.065,3.525-.211,5.676h8.344v4.579Z" transform="translate(-16.795 -3.232)" fill="#dc760f"/>
    <path id="Path_3" data-name="Path 3" d="M28.341,15.32l1.01.77.865.661a4.535,4.535,0,0,1,.472.363.429.429,0,0,1,.109.247c.1.494.211.988.291,1.454s.124.974.16,1.454a11.086,11.086,0,0,1,.051,1.207,11.222,11.222,0,0,1-.145,1.846,10.379,10.379,0,0,1-.378,1.628,8.867,8.867,0,0,1-.727,1.715,12.357,12.357,0,0,1-.727,1.185,14.972,14.972,0,0,1-.981,1.279,12.668,12.668,0,0,1-.945.93c-.385.342-.792.669-1.2.981s-.77.56-1.163.829-.85.538-1.279.8-.778.465-1.17.727l-1.272.727-1.359.727-1.308.727-1.207.632q-.64.371-1.265.727c-.392.247-.778.5-1.156.77s-.85.618-1.25.952-.821.727-1.214,1.09c-.276.269-.538.56-.792.858s-.465.6-.683.916a9.673,9.673,0,0,0-.531.872,6.781,6.781,0,0,0-.392.8c-.174.422-.334.843-.465,1.272a7.079,7.079,0,0,0-.247,1,9.652,9.652,0,0,0-.16,1.119c0,.385-.051.778-.058,1.163a7.428,7.428,0,0,0,0,.9c.044.567.109,1.127.182,1.686.065.422.153.843.233,1.265,0,.16.065.313.08.48-.094-.087-9.34-7.188-9.507-7.3a.225.225,0,0,1-.08-.131c-.044-.422-.094-.85-.138-1.279a10.364,10.364,0,0,1,0-1.061,10.121,10.121,0,0,1,.138-1.454,9.407,9.407,0,0,1,.291-1.236,6.28,6.28,0,0,1,.3-.785A8.831,8.831,0,0,1,1.594,37.2a8.155,8.155,0,0,1,.988-1.243,12.735,12.735,0,0,1,1.09-1.01A11.87,11.87,0,0,1,4.7,34.166c.363-.247.727-.48,1.141-.727s.792-.429,1.192-.632.727-.342,1.047-.494c.509-.225,1.025-.443,1.534-.654l1.047-.4,1.25-.443c.523-.189,1.054-.363,1.584-.545l2.18-.727c.545-.182,1.083-.363,1.621-.56l1.759-.669c.451-.182.9-.356,1.345-.56s1.083-.516,1.621-.792A9.951,9.951,0,0,0,23.05,26.4c.305-.2.872-.56,1.286-.865a10.9,10.9,0,0,0,1-.814,10.684,10.684,0,0,0,.93-.974,12.538,12.538,0,0,0,.872-1.17,8.721,8.721,0,0,0,.472-.945,7.922,7.922,0,0,0,.538-1.454,10.4,10.4,0,0,0,.291-1.7,10.779,10.779,0,0,0,0-1.606c0-.378-.058-.727-.094-1.141A1.878,1.878,0,0,0,28.341,15.32ZM4.065,44.785h0a8.086,8.086,0,0,0,.058,1.185c.058.392.094.9.138,1.359a.233.233,0,0,0,.094.153l.894.683a4.412,4.412,0,0,0-.087-.567,15.91,15.91,0,0,1-.145-1.861c0-.16,0-.313-.182-.392-.058,0-.1-.087-.16-.124Zm.647-3.692c-.044.124-.08.24-.124.356a10.03,10.03,0,0,0-.407,1.657.131.131,0,0,0,.058.138l.378.283.465.342a.378.378,0,0,0,0-.08,5.858,5.858,0,0,1,.116-.64c.109-.443.233-.879.356-1.316v-.124l-.371-.283Zm.581-1.243.727.574c.1.08.094.073.16,0q.211-.371.436-.727c.189-.283.385-.545.589-.836l-.8-.618A10.009,10.009,0,0,0,5.293,39.85Zm4.448-3.3-.625-.465c-.145-.116-.145-.124-.291,0-.342.254-.683.516-1.018.785-.145.116-.283.254-.436.385l.08.065.64.487c.058.044.08.044.124,0,.291-.262.581-.523.879-.77S9.509,36.725,9.742,36.55Zm.429-1.366c.233.174.436.32.625.48a.182.182,0,0,0,.254,0l.945-.552.77-.4-.581-.443a.167.167,0,0,0-.211,0Zm3.925-1.2,2.05-.945c-.189-.138-.356-.262-.523-.4a.174.174,0,0,0-.218,0c-.334.145-.676.283-1.01.436l-.959.429Zm2.849-2.013c.189.145.371.291.552.422a.131.131,0,0,0,.116,0c.494-.211,1-.429,1.49-.654l.509-.233a5.321,5.321,0,0,1-.422-.327.247.247,0,0,0-.305-.044Zm6-2.115a4.267,4.267,0,0,1-.414-.233.182.182,0,0,0-.247,0c-.443.233-.894.451-1.345.676l-.516.247.487.371a.167.167,0,0,0,.145,0l1.221-.618Zm.727-1.1.494.378,1.693-1.207-.4-.313c-.051-.044-.08,0-.138,0-.3.218-.589.436-.894.64s-.443.363-.727.531Zm4.143-3.489-1.33,1.454.225.167c.174.153.182.153.334,0h0a10.437,10.437,0,0,0,1.112-1.337Zm1.454-3.06a10.037,10.037,0,0,1-.778,1.912l.363.269a8.9,8.9,0,0,0,.727-1.839.131.131,0,0,0,0-.131,2.122,2.122,0,0,0-.3-.247Zm.4-3.888a.1.1,0,0,0,0,.065c0,.363,0,.727,0,1.083s-.073.821-.109,1.228a.094.094,0,0,0,0,.073l.254.2c0-.218.065-.429.08-.632a6.129,6.129,0,0,0,0-.632V18.671a.32.32,0,0,0-.051-.189,1.257,1.257,0,0,0-.16-.2Z" transform="translate(0 -4.185)" fill="#306379"/>
    <path id="Path_4" data-name="Path 4" d="M5.6,55.86l.574.443c.058.036.1.094.16.124.189.08.182.233.182.392a15.91,15.91,0,0,0,.145,1.861,3.366,3.366,0,0,0,.087.567l-.858-.683a.233.233,0,0,1-.094-.153c-.044-.458-.1-.909-.138-1.359s-.044-.792-.058-1.185Z" transform="translate(-1.535 -15.26)" fill="#fff"/>
    <path id="Path_5" data-name="Path 5" d="M6.281,50.78l.443.334L7.1,51.4c.051,0,.058.058,0,.124-.124.436-.247.872-.356,1.316a5.858,5.858,0,0,0-.116.64.378.378,0,0,1,0,.08l-.458-.342-.378-.283a.131.131,0,0,1-.058-.138,10.03,10.03,0,0,1,.407-1.657A1.347,1.347,0,0,0,6.281,50.78Z" transform="translate(-1.569 -13.872)" fill="#fff"/>
    <path id="Path_6" data-name="Path 6" d="M7.29,48.455A10.008,10.008,0,0,1,8.431,46.82l.8.618c-.2.291-.4.552-.589.836A8.342,8.342,0,0,0,8.206,49c-.065.109-.058.116-.16,0Z" transform="translate(-1.997 -12.79)" fill="#fff"/>
    <path id="Path_7" data-name="Path 7" d="M12.519,44.321c-.233.174-.451.313-.647.48s-.589.509-.879.77c-.044.044-.065.044-.124,0l-.64-.487-.08-.065c.153-.131.291-.269.436-.385.334-.269.676-.531,1.018-.785.145-.116.145-.109.291,0Z" transform="translate(-2.778 -11.955)" fill="#fff"/>
    <path id="Path_8" data-name="Path 8" d="M14,42.267l1.824-.981a.167.167,0,0,1,.211,0l.581.443-.792.451-.945.552a.182.182,0,0,1-.254,0C14.414,42.587,14.211,42.442,14,42.267Z" transform="translate(-3.83 -11.268)" fill="#fff"/>
    <path id="Path_9" data-name="Path 9" d="M19.151,40.469l-.661-.509.959-.429c.334-.153.676-.291,1.01-.436a.174.174,0,0,1,.218,0c.167.138.334.262.523.4Z" transform="translate(-5.056 -10.67)" fill="#fff"/>
    <path id="Path_10" data-name="Path 10" d="M23.32,37.943l1.948-.836a.247.247,0,0,1,.305.044,5.323,5.323,0,0,0,.422.327l-.509.233c-.494.225-1,.443-1.49.654a.131.131,0,0,1-.116,0C23.691,38.234,23.509,38.088,23.32,37.943Z" transform="translate(-6.376 -10.128)" fill="#fff"/>
    <path id="Path_11" data-name="Path 11" d="M30.63,35.231l-.647.349-1.221.618a.167.167,0,0,1-.145,0l-.487-.371.516-.247c.451-.225.9-.443,1.345-.676a.182.182,0,0,1,.225.065,4.266,4.266,0,0,0,.414.262Z" transform="translate(-7.69 -9.531)" fill="#fff"/>
    <path id="Path_12" data-name="Path 12" d="M32.61,33.4c.262-.167.516-.327.727-.494s.6-.422.894-.64c.058-.036.087-.051.138,0l.4.313-1.693,1.207Z" transform="translate(-8.914 -8.806)" fill="#fff"/>
    <path id="Path_13" data-name="Path 13" d="M37.77,29l.363.283a10.437,10.437,0,0,1-1.112,1.337h0c-.153.174-.16.174-.334,0l-.247-.167Z" transform="translate(-9.96 -7.922)" fill="#fff"/>
    <path id="Path_14" data-name="Path 14" d="M39.984,24.74a2.123,2.123,0,0,1,.276.211.131.131,0,0,1,0,.131,8.9,8.9,0,0,1-.727,1.839l-.363-.269a10.038,10.038,0,0,0,.814-1.912Z" transform="translate(-10.706 -6.759)" fill="#fff"/>
    <path id="Path_15" data-name="Path 15" d="M40.81,19.39a1.257,1.257,0,0,1,.211.167.32.32,0,0,1,.051.189v1.025a6.129,6.129,0,0,1,0,.632,5.014,5.014,0,0,1-.08.632l-.254-.2a.094.094,0,0,1,0-.073c0-.407.087-.814.109-1.228s0-.727,0-1.083a.1.1,0,0,1-.036-.065Z" transform="translate(-11.132 -5.297)" fill="#fff"/>
    <path id="Path_16" data-name="Path 16" d="M104.12,45.89a1.752,1.752,0,0,0,.174-.153l8.257-9.3.138-.153a1.374,1.374,0,0,1,1.832-.167l.1.065,2.973-3.343-.247-.3a13.084,13.084,0,0,1,5.793-20.816,12.3,12.3,0,0,1,2.6-.6c.494-.051.988-.109,1.454-.116a13.141,13.141,0,0,1,12.181,7.835,12.146,12.146,0,0,1,1,3.46,13.141,13.141,0,0,1-8.722,14.224,12.763,12.763,0,0,1-4.361.727,13,13,0,0,1-7.472-2.428l-.087-.058L116.767,38.1v.036a1.374,1.374,0,0,1,0,1.941l-3.256,3.634-5.117,5.815-.2.218h-.407c-.058-.058-.109-.116-.167-.167l-3.263-2.907a1.41,1.41,0,0,0-.174-.109ZM126.8,13.772a10.357,10.357,0,1,0,10.946,9.739A10.357,10.357,0,0,0,126.8,13.772Z" transform="translate(-28.449 -3.007)" fill="#306379"/>
  </g>
</svg>
