<svg id="Group_45" data-name="Group 45" xmlns="http://www.w3.org/2000/svg" width="71" height="40" viewBox="0 0 71 40">
  <g id="Group_43084" data-name="Group 43084">
    <path id="Path_1" data-name="Path 1" d="M317.091,319.657l2.216-4.1a12.351,12.351,0,0,1,2.861,19.57,12.573,12.573,0,0,1-1.244.956,11.264,11.264,0,0,0-3.832-16.431" transform="translate(-305.19 -298.789)" fill="#fdc500"/>
    <path id="Path_2" data-name="Path 2" d="M254.2,375.032l.006-.01,7.913-14.625a11.27,11.27,0,0,1,5.131,13.877,12.412,12.412,0,0,1-13.049.758" transform="translate(-252.251 -336.53)" fill="#fdc500"/>
    <path id="Path_3" data-name="Path 3" d="M250.554,267.5l-2.215,4.1a12.351,12.351,0,0,1-2.861-19.57,12.566,12.566,0,0,1,1.244-.956,11.264,11.264,0,0,0,3.832,16.431" transform="translate(-241.87 -248.373)" fill="#fff"/>
    <path id="Path_4" data-name="Path 4" d="M286.318,235.5l-.006.01L278.4,250.134a11.27,11.27,0,0,1-5.131-13.877,12.412,12.412,0,0,1,13.049-.758" transform="translate(-267.684 -234)" fill="#fff"/>
  </g>
  <text id="SAFWA" transform="translate(26 27)" fill="#fff" font-size="16" font-family="AlQabas-Bold, Al Qabas" font-weight="700"><tspan x="0" y="0">SAFWA</tspan></text>
</svg>
